<svg width="294" height="292" viewBox="0 0 294 292" fill="none" xmlns="http://www.w3.org/2000/svg">
<path d="M147 0L149.939 90.3094L162.366 0.799805L155.784 90.9195L177.563 3.19044L161.532 92.1332L192.426 7.14575L167.122 93.937L206.79 12.6224L172.491 96.3112L220.5 19.5603L177.581 99.2298L233.404 27.8835L182.336 102.661L245.362 37.5009L186.703 106.567L256.242 48.3069L190.636 110.905L265.926 60.1833L194.091 115.627L274.306 73L197.029 120.682L281.291 86.6165L199.42 126.015L286.805 100.884L201.236 131.566L290.788 115.645L202.458 137.276L293.195 130.739L203.072 143.081L294 146L203.072 148.919L293.195 161.261L202.458 154.724L290.788 176.355L201.236 160.434L286.805 191.116L199.42 165.985L281.291 205.384L197.029 171.318L274.306 219L194.091 176.373L265.926 231.817L190.636 181.095L256.242 243.693L186.703 185.433L245.362 254.499L182.336 189.339L233.404 264.116L177.581 192.77L220.5 272.44L172.491 195.689L206.79 279.378L167.122 198.063L192.426 284.854L161.532 199.867L177.563 288.81L155.784 201.08L162.366 291.2L149.939 201.691L147 292L144.061 201.691L131.634 291.2L138.216 201.08L116.437 288.81L132.468 199.867L101.575 284.854L126.878 198.063L87.2097 279.378L121.509 195.689L73.5 272.44L116.419 192.77L60.5956 264.116L111.664 189.339L48.6378 254.499L107.297 185.433L37.7577 243.693L103.364 181.095L28.0745 231.817L99.9095 176.373L19.6943 219L96.9709 171.318L12.7088 205.384L94.5804 165.985L7.19469 191.116L92.7642 160.434L3.2123 176.355L91.5423 154.724L0.805283 161.261L90.9279 148.919L0 146L90.9279 143.081L0.805283 130.739L91.5423 137.276L3.2123 115.645L92.7642 131.566L7.19469 100.884L94.5804 126.015L12.7088 86.6165L96.9709 120.682L19.6943 73L99.9095 115.627L28.0745 60.1833L103.364 110.905L37.7577 48.3069L107.297 106.567L48.6378 37.5009L111.664 102.661L60.5956 27.8835L116.419 99.2298L73.5 19.5603L121.509 96.3112L87.2097 12.6224L126.878 93.937L101.575 7.14575L132.468 92.1332L116.437 3.19044L138.216 90.9195L131.634 0.799805L144.061 90.3094L147 0Z" fill="#FFEF89"/>
</svg>
