<svg width="20" height="40" viewBox="0 0 303 301" fill="none" xmlns="http://www.w3.org/2000/svg">
<path fill-rule="evenodd" clip-rule="evenodd" d="M139.328 108.117C126.343 108.558 117.857 108.662 115.014 108.414C112.327 108.18 112.583 108.129 112.242 108.969C112.021 109.517 111.933 110.012 111.886 110.973C111.831 112.107 111.854 112.305 112.084 112.753C112.652 113.856 113.769 114.371 117.512 115.259C119.556 115.744 120.138 115.994 120.891 116.708C121.489 117.275 121.698 117.624 122.062 118.664L122.317 119.391L122.353 148.536C122.379 168.918 122.351 178.03 122.258 178.845C121.863 182.308 120.886 184.156 118.976 185.052L118.158 185.436L115.711 185.433C113.785 185.43 113.107 185.385 112.53 185.223C111.799 185.018 111.795 185.019 111.581 185.287C111.221 185.742 111 186.697 111 187.799C111 189.617 111.518 190.542 112.902 191.196C114.558 191.979 114.032 191.952 129.722 192.041C139.563 192.097 144.127 192.164 144.462 192.257C145.07 192.425 145.173 192.346 145.518 191.455C145.701 190.982 145.802 190.39 145.843 189.551C145.896 188.484 145.872 188.271 145.65 187.838C145.081 186.735 144.047 186.229 140.634 185.387C139.281 185.053 137.944 184.662 137.66 184.519C136.972 184.172 136.359 183.515 135.995 182.735C135.335 181.323 135.36 182.499 135.355 151.441C135.352 132.318 135.393 122.312 135.477 121.63C136.002 117.376 137.607 115.658 141.775 114.891C143.525 114.569 148.88 114.566 150.83 114.886C155.219 115.605 158.426 116.952 161.23 119.256C164.092 121.606 165.914 124.681 166.681 128.459C166.924 129.654 166.943 130.024 166.885 132.639C166.834 134.944 166.773 135.716 166.572 136.564C165.721 140.148 164.489 142.455 162.211 144.729C160.15 146.787 157.482 148.316 154.011 149.427C150.85 150.439 148.794 150.817 145.643 150.965C143.339 151.073 142.276 151.22 141.713 151.51C141.227 151.76 140.419 152.663 140.091 153.322C139.278 154.955 139.346 157.161 140.222 157.582C140.335 157.637 141.972 157.71 143.858 157.744L147.287 157.806L148.136 158.22C148.739 158.514 149.272 158.919 149.976 159.614C151.771 161.387 152.728 162.979 156.601 170.64C161.153 179.645 163.568 183.616 166.162 186.36C166.546 186.766 166.879 187.15 166.902 187.213C167.006 187.49 169.541 189.592 170.699 190.362C172.3 191.425 173.05 191.798 174.507 192.257C177.175 193.096 180.995 193.244 183.476 192.604C187.293 191.619 190.612 189.138 191.718 186.443C192.479 184.592 191.611 182.225 190.172 182.225C189.915 182.225 189.2 182.417 188.585 182.653C187 183.259 185.281 183.446 183.889 183.164C180.88 182.553 177.388 179.597 173.261 174.166C172.331 172.943 168.823 167.935 166.675 164.766C164.075 160.928 161.726 158.063 160.032 156.665C159.514 156.237 159.107 155.87 159.127 155.85C159.147 155.83 159.849 155.601 160.686 155.342C162.482 154.787 164.334 154.062 165.731 153.366C173.323 149.587 178.723 142.802 180.282 135.084C180.533 133.844 180.564 133.343 180.564 130.54C180.564 127.691 180.536 127.261 180.276 126.056C178.003 115.525 169.276 109.597 154.028 108.229C151.173 107.973 144.965 107.926 139.328 108.117Z" fill="#FFEF89"/>
<path d="M67 174V194.8L150.493 246L238 194.8V174" stroke="#89E3FF" stroke-width="7" stroke-linecap="round" stroke-linejoin="round"/>
<path d="M238 125V104.2L154.507 53L67 104.2V125" stroke="#FFAC89" stroke-width="7" stroke-linecap="round" stroke-linejoin="round"/>
<path d="M280.5 161C292.926 161 303 151.15 303 139C303 126.85 292.926 117 280.5 117C268.074 117 258 126.85 258 139C258 151.15 268.074 161 280.5 161Z" fill="#89E3FF"/>
<path d="M22 106.862V78.9541L152.809 4L278 78.9541V126" stroke="#89E3FF" stroke-width="7" stroke-linecap="round" stroke-linejoin="round"/>
<path d="M22.5 139C10.0736 139 3.8147e-06 149.074 3.8147e-06 161.5C3.8147e-06 173.926 10.0736 184 22.5 184C34.9264 184 45 173.926 45 161.5C45 149.074 34.9264 139 22.5 139Z" fill="#FFAC89"/>
<path d="M281 193.294V221.431L150.191 297L25 221.431V174" stroke="#FFAC89" stroke-width="7" stroke-linecap="round" stroke-linejoin="round"/>
</svg>
