<svg width="170" height="168" viewBox="0 0 170 168" fill="none" xmlns="http://www.w3.org/2000/svg">
<path d="M85 0L86.6992 51.9588L93.8849 0.460159L90.079 52.3099L102.672 1.8356L93.4031 53.0081L111.266 4.11125L96.6352 54.0459L119.573 7.26218L99.7398 55.4119L127.5 11.2539L102.683 57.0911L134.962 16.0426L105.432 59.0652L141.876 21.5758L107.958 61.3124L148.167 27.793L110.232 63.8082L153.766 34.626L112.229 66.5252L158.612 42L113.928 69.4336L162.651 49.8341L115.311 72.5017L165.84 58.0426L116.361 75.6958L168.143 66.5354L117.067 78.9808L169.534 75.2196L117.423 82.3208L170 84L117.423 85.6792L169.534 92.7804L117.067 89.0192L168.143 101.465L116.361 92.3042L165.84 109.957L115.311 95.4983L162.651 118.166L113.928 98.5664L158.612 126L112.229 101.475L153.766 133.374L110.232 104.192L148.167 140.207L107.958 106.688L141.876 146.424L105.432 108.935L134.962 151.957L102.683 110.909L127.5 156.746L99.7398 112.588L119.573 160.738L96.6352 113.954L111.266 163.889L93.4031 114.992L102.672 166.164L90.079 115.69L93.8849 167.54L86.6992 116.041L85 168L83.3008 116.041L76.1151 167.54L79.921 115.69L67.3275 166.164L76.5969 114.992L58.7336 163.889L73.3648 113.954L50.4274 160.738L70.2602 112.588L42.5 156.746L67.3171 110.909L35.0383 151.957L64.5678 108.935L28.1239 146.424L62.0423 106.688L21.8327 140.207L59.7683 104.192L16.2336 133.374L57.7708 101.475L11.3878 126L56.0716 98.5664L7.34863 118.166L54.6893 95.4983L4.16019 109.957L53.6392 92.3042L1.85745 101.465L52.9326 89.0192L0.465637 92.7804L52.5774 85.6792L0 84L52.5774 82.3208L0.465637 75.2196L52.9326 78.9808L1.85745 66.5354L53.6392 75.6958L4.16019 58.0426L54.6893 72.5017L7.34863 49.8341L56.0716 69.4336L11.3878 42L57.7708 66.5252L16.2336 34.626L59.7683 63.8082L21.8327 27.793L62.0423 61.3124L28.1239 21.5758L64.5678 59.0652L35.0383 16.0426L67.3171 57.0911L42.5 11.2539L70.2602 55.4119L50.4274 7.26218L73.3648 54.0459L58.7336 4.11125L76.5969 53.0081L67.3275 1.8356L79.921 52.3099L76.1151 0.460159L83.3008 51.9588L85 0Z" fill="#FFAC89"/>
</svg>
